<svg width="24" height="24" viewBox="0 0 24 24" fill="none" xmlns="http://www.w3.org/2000/svg">
<g id="Social platforms logo" clip-path="url(#clip0_2_13718)">
<g id="Logo">
<path id="Vector" d="M23.7628 12.276C23.7628 11.4603 23.6967 10.6401 23.5556 9.83765H12.2368V14.4586H18.7185C18.4496 15.949 17.5853 17.2674 16.3199 18.1051V21.1035H20.1869C22.4577 19.0135 23.7628 15.9269 23.7628 12.276Z" fill="white"/>
<path id="Vector_2" d="M12.2372 24.0002C15.4736 24.0002 18.203 22.9376 20.1916 21.1033L16.3246 18.1049C15.2487 18.8369 13.8598 19.2514 12.2416 19.2514C9.11096 19.2514 6.45653 17.1393 5.50412 14.2997H1.51367V17.3906C3.55078 21.4428 7.69997 24.0002 12.2372 24.0002Z" fill="white"/>
<path id="Vector_3" d="M5.49984 14.3002C4.99718 12.8099 4.99718 11.196 5.49984 9.70569V6.61475H1.51381C-0.188196 10.0055 -0.188196 14.0004 1.51381 17.3912L5.49984 14.3002Z" fill="white"/>
<path id="Vector_4" d="M12.2372 4.74954C13.948 4.72308 15.6015 5.36684 16.8405 6.54855L20.2666 3.12249C18.0972 1.08538 15.2179 -0.0345881 12.2372 0.000686596C7.69997 0.000686596 3.55078 2.5581 1.51367 6.61469L5.49971 9.70563C6.44772 6.86161 9.10654 4.74954 12.2372 4.74954Z" fill="white"/>
</g>
</g>
<defs>
<clipPath id="clip0_2_13718">
<rect width="24" height="24" fill="white"/>
</clipPath>
</defs>
</svg>
