<svg width="24" height="24" viewBox="0 0 24 24" fill="none" xmlns="http://www.w3.org/2000/svg">
<g id="Social platforms logo">
<path id="Logo" d="M13.5423 12C13.5423 15.6661 10.5179 18.6429 6.77116 18.6429C3.02445 18.6429 0 15.6661 0 12C0 8.334 3.02445 5.35718 6.77116 5.35718C10.5179 5.35718 13.5423 8.334 13.5423 12ZM20.9605 12C20.9605 15.4461 19.4408 18.247 17.5749 18.247C15.7091 18.247 14.1893 15.4461 14.1893 12C14.1893 8.55396 15.7091 5.75311 17.5749 5.75311C19.4408 5.75311 20.9605 8.5393 20.9605 12ZM24 12C24 15.0942 23.4734 17.6017 22.8113 17.6017C22.1492 17.6017 21.6226 15.0942 21.6226 12C21.6226 8.9059 22.1492 6.39833 22.8113 6.39833C23.4734 6.39833 24 8.9059 24 12Z" fill="white"/>
</g>
</svg>
