<svg width="48" height="48" viewBox="0 0 48 48" fill="none" xmlns="http://www.w3.org/2000/svg">
<path d="M13.7899 20.6528C18.0731 20.6528 21.5455 24.1497 21.5455 28.4632C21.5455 32.7758 18.0731 36.2727 13.7899 36.2727C9.50672 36.2727 6.03436 32.7758 6.03436 28.4632L6 27.3472C6 18.7203 12.9447 11.7273 21.5111 11.7273V16.1905C18.5517 16.1905 15.7691 17.3506 13.677 19.4583C13.2736 19.8633 12.9063 20.2953 12.5749 20.7486C12.9709 20.6856 13.3767 20.6528 13.7899 20.6528ZM34.2445 20.6528C38.5276 20.6528 42 24.1497 42 28.4632C42 32.7758 38.5276 36.2727 34.2445 36.2727C29.9613 36.2727 26.4889 32.7758 26.4889 28.4632L26.4545 27.3472C26.4545 18.7203 33.3993 11.7273 41.9656 11.7273V16.1905C39.0063 16.1905 36.2236 17.3506 34.1315 19.4583C33.7282 19.8633 33.3608 20.2953 33.0295 20.7486C33.4255 20.6856 33.8313 20.6528 34.2445 20.6528Z" fill="#437EF7"/>
</svg>
