<svg width="21" height="20" viewBox="0 0 21 20" fill="none" xmlns="http://www.w3.org/2000/svg">
<g id="Icon">
<path id="Icon_2" fill-rule="evenodd" clip-rule="evenodd" d="M16.3332 8.30687H17.6932C17.8043 8.30687 17.8598 8.30687 17.9071 8.28803C17.9488 8.2714 17.9858 8.24441 18.0146 8.20954C18.0472 8.17006 18.0647 8.11666 18.0999 8.00985L18.6036 6.4786C18.7704 5.97168 18.8537 5.71822 18.8288 5.48318C18.8069 5.27605 18.7266 5.07968 18.5976 4.9175C18.4512 4.73346 18.2153 4.61398 17.7437 4.37502L11.2667 1.0936C10.9855 0.951139 10.8449 0.879909 10.6975 0.851875C10.5669 0.827044 10.4328 0.827044 10.3022 0.851875C10.1547 0.879909 10.0141 0.951139 9.73295 1.0936L3.25601 4.37502C2.78434 4.61398 2.5485 4.73346 2.40208 4.9175C2.27305 5.07968 2.19278 5.27605 2.17084 5.48318C2.14594 5.71822 2.22932 5.97168 2.39608 6.4786L2.89982 8.00985C2.93495 8.11666 2.95252 8.17006 2.98511 8.20954C3.01388 8.24441 3.05084 8.2714 3.09258 8.28803C3.13985 8.30687 3.19541 8.30687 3.30652 8.30687H4.66651V14.8227H4.33641C3.85769 14.8227 3.61833 14.8227 3.4192 14.9075C3.2435 14.9823 3.09066 15.1032 2.97643 15.2578C2.84696 15.433 2.78891 15.6682 2.6728 16.1388L2.45845 17.0076C2.27688 17.7435 2.18609 18.1115 2.27449 18.4013C2.35196 18.6553 2.51869 18.8717 2.74308 19.0094C2.9991 19.1666 3.37342 19.1666 4.12206 19.1666H16.8776C17.6263 19.1666 18.0006 19.1666 18.2566 19.0094C18.481 18.8717 18.6477 18.6553 18.7252 18.4013C18.8136 18.1115 18.7228 17.7435 18.5412 17.0076L18.3269 16.1388C18.2108 15.6683 18.1527 15.433 18.0232 15.2578C17.909 15.1032 17.7562 14.9823 17.5805 14.9075C17.3813 14.8227 17.142 14.8227 16.6633 14.8227H16.3332V8.30687ZM14.6665 8.30687H11.3332V14.8227H14.6665V8.30687ZM9.66651 14.8227V8.30687H6.33317V14.8227H9.66651Z" fill="white"/>
</g>
</svg>
