<svg width="21" height="20" viewBox="0 0 21 20" fill="none" xmlns="http://www.w3.org/2000/svg">
<g id="Icon">
<g id="Icon_2">
<path d="M2.16655 5.83325H18.8331C18.8325 5.00963 18.822 4.57791 18.6515 4.24327C18.4917 3.92966 18.2368 3.6747 17.9232 3.51491C17.5666 3.33325 17.0999 3.33325 16.1665 3.33325H4.83317C3.89975 3.33325 3.43304 3.33325 3.07652 3.51491C2.76292 3.6747 2.50795 3.92966 2.34816 4.24327C2.17765 4.57791 2.16719 5.00963 2.16655 5.83325Z" fill="white"/>
<path fill-rule="evenodd" clip-rule="evenodd" d="M18.8332 7.49992H2.1665V13.9999C2.1665 14.9333 2.1665 15.4001 2.34816 15.7566C2.50795 16.0702 2.76292 16.3251 3.07652 16.4849C3.43304 16.6666 3.89975 16.6666 4.83317 16.6666H16.1665C17.0999 16.6666 17.5666 16.6666 17.9232 16.4849C18.2368 16.3251 18.4917 16.0702 18.6515 15.7566C18.8332 15.4001 18.8332 14.9333 18.8332 13.9999V7.49992ZM4.6665 13.3333C4.6665 12.873 5.0396 12.4999 5.49984 12.4999H8.83317C9.29341 12.4999 9.6665 12.873 9.6665 13.3333C9.6665 13.7935 9.29341 14.1666 8.83317 14.1666H5.49984C5.0396 14.1666 4.6665 13.7935 4.6665 13.3333ZM12.1665 12.4999C11.7063 12.4999 11.3332 12.873 11.3332 13.3333C11.3332 13.7935 11.7063 14.1666 12.1665 14.1666H15.4998C15.9601 14.1666 16.3332 13.7935 16.3332 13.3333C16.3332 12.873 15.9601 12.4999 15.4998 12.4999H12.1665Z" fill="white"/>
</g>
</g>
</svg>
