<svg width="66" height="67" viewBox="0 0 66 67" fill="none" xmlns="http://www.w3.org/2000/svg">
<g id="Logo">
<ellipse id="BG" cx="32.7934" cy="33.4628" rx="32.7934" ry="33.4628" fill="#303030"/>
<g id="Logo_2">
<g id="Group">
<path id="Vector" d="M18.7412 27.3355V34.6992C18.7412 36.6271 21.6835 36.635 21.6835 34.6992V27.3355C21.6835 25.4077 18.7412 25.3998 18.7412 27.3355Z" fill="white"/>
<path id="Vector_2" d="M43.0225 27.3355V34.6992C43.0225 36.6271 45.9648 36.635 45.9648 34.6992V27.3355C45.9648 25.4077 43.0225 25.3998 43.0225 27.3355Z" fill="white"/>
<path id="Vector_3" d="M24.8115 21.4488V40.3873C24.8115 42.3151 27.7538 42.323 27.7538 40.3873V21.4488C27.7538 19.521 24.8115 19.5131 24.8115 21.4488Z" fill="white"/>
<path id="Vector_4" d="M36.9526 21.4488V40.3873C36.9526 42.3151 39.8949 42.323 39.8949 40.3873V21.4488C39.8949 19.521 36.9526 19.5131 36.9526 21.4488Z" fill="white"/>
<path id="Vector_5" d="M30.8818 26.6393V45.5777C30.8818 47.5055 33.8241 47.5134 33.8241 45.5777V26.6393C33.8241 24.7114 30.8818 24.7035 30.8818 26.6393Z" fill="white"/>
</g>
</g>
</g>
</svg>
