<svg width="21" height="20" viewBox="0 0 21 20" fill="none" xmlns="http://www.w3.org/2000/svg">
<g id="Icon">
<g id="Icon_2">
<path d="M9.66683 0.870605C7.7612 1.04233 6.02374 1.79725 4.63428 2.95551L9.66683 7.98806V0.870605Z" fill="white"/>
<path d="M3.45577 4.13402C2.13068 5.7236 1.3335 7.76866 1.3335 9.9999C1.3335 12.2311 2.13068 14.2762 3.45577 15.8658L9.32165 9.9999L3.45577 4.13402Z" fill="white"/>
<path d="M4.63428 17.0443L10.8453 10.8332C11.1579 10.5207 11.3335 10.0968 11.3335 9.65473V0.870605C16.0056 1.29163 19.6668 5.2182 19.6668 9.9999C19.6668 15.0625 15.5628 19.1666 10.5002 19.1666C8.26892 19.1666 6.22386 18.3694 4.63428 17.0443Z" fill="white"/>
</g>
</g>
</svg>
