<svg width="332" height="46" viewBox="0 0 332 46" fill="none" xmlns="http://www.w3.org/2000/svg">
<path d="M0.5 6C0.5 2.96244 2.96243 0.5 6 0.5H331.5V45.5H6.00001C2.96244 45.5 0.5 43.0376 0.5 40V6Z" fill="white"/>
<path d="M17.321 28V17.0909H23.9048V18.2628H18.642V21.9489H23.5639V23.1207H18.642V26.8281H23.9901V28H17.321ZM27.2725 23.0781V28H26.0154V19.8182H27.2299V21.0966H27.3364C27.5282 20.6811 27.8194 20.3473 28.21 20.0952C28.6006 19.8395 29.1049 19.7116 29.7228 19.7116C30.2768 19.7116 30.7615 19.8253 31.177 20.0526C31.5925 20.2763 31.9156 20.6172 32.1464 21.0753C32.3773 21.5298 32.4927 22.1051 32.4927 22.8011V28H31.2356V22.8864C31.2356 22.2436 31.0687 21.7429 30.7349 21.3842C30.4011 21.022 29.943 20.8409 29.3606 20.8409C28.9593 20.8409 28.6006 20.9279 28.2846 21.1019C27.9721 21.2759 27.7253 21.5298 27.5442 21.8636C27.3631 22.1974 27.2725 22.6023 27.2725 23.0781ZM38.2481 19.8182V20.8835H34.008V19.8182H38.2481ZM35.2438 17.858H36.5009V25.6562C36.5009 26.0114 36.5524 26.2777 36.6554 26.4553C36.7619 26.6293 36.8969 26.7464 37.0602 26.8068C37.2271 26.8636 37.4029 26.892 37.5876 26.892C37.726 26.892 37.8397 26.8849 37.9285 26.8707C38.0172 26.853 38.0883 26.8388 38.1415 26.8281L38.3972 27.9574C38.312 27.9893 38.193 28.0213 38.0403 28.0533C37.8876 28.0888 37.6941 28.1065 37.4597 28.1065C37.1046 28.1065 36.7566 28.0302 36.4157 27.8775C36.0783 27.7248 35.7978 27.4922 35.5741 27.1797C35.3539 26.8672 35.2438 26.473 35.2438 25.9972V17.858ZM43.3816 28.1705C42.5932 28.1705 41.9132 27.9964 41.3414 27.6484C40.7732 27.2969 40.3347 26.8068 40.0257 26.1783C39.7203 25.5462 39.5676 24.8111 39.5676 23.973C39.5676 23.1349 39.7203 22.3963 40.0257 21.7571C40.3347 21.1143 40.7644 20.6136 41.3148 20.255C41.8688 19.8928 42.5151 19.7116 43.2537 19.7116C43.6798 19.7116 44.1007 19.7827 44.5161 19.9247C44.9316 20.0668 45.3098 20.2976 45.6507 20.6172C45.9916 20.9332 46.2633 21.3523 46.4657 21.8743C46.6681 22.3963 46.7693 23.0391 46.7693 23.8026V24.3352H40.4625V23.2486H45.4909C45.4909 22.7869 45.3986 22.375 45.2139 22.0128C45.0328 21.6506 44.7736 21.3647 44.4362 21.1552C44.1024 20.9457 43.7083 20.8409 43.2537 20.8409C42.753 20.8409 42.3198 20.9652 41.954 21.2138C41.5918 21.4588 41.313 21.7784 41.1177 22.1726C40.9224 22.5668 40.8247 22.9893 40.8247 23.4403V24.1648C40.8247 24.7827 40.9313 25.3065 41.1443 25.7362C41.361 26.1623 41.661 26.4872 42.0445 26.7109C42.4281 26.9311 42.8737 27.0412 43.3816 27.0412C43.7118 27.0412 44.0101 26.995 44.2764 26.9027C44.5463 26.8068 44.7789 26.6648 44.9742 26.4766C45.1695 26.2848 45.3205 26.0469 45.427 25.7628L46.6415 26.1037C46.5137 26.5156 46.2988 26.8778 45.997 27.1903C45.6951 27.4993 45.3222 27.7408 44.8784 27.9148C44.4345 28.0852 43.9355 28.1705 43.3816 28.1705ZM48.5816 28V19.8182H49.7961V21.054H49.8813C50.0305 20.6491 50.3004 20.3207 50.691 20.0685C51.0816 19.8164 51.522 19.6903 52.012 19.6903C52.1044 19.6903 52.2198 19.6921 52.3583 19.6957C52.4968 19.6992 52.6015 19.7045 52.6725 19.7116V20.9901C52.6299 20.9794 52.5323 20.9634 52.3796 20.9421C52.2304 20.9173 52.0724 20.9048 51.9055 20.9048C51.5078 20.9048 51.1526 20.9883 50.8401 21.1552C50.5312 21.3185 50.2862 21.5458 50.1051 21.837C49.9275 22.1246 49.8387 22.4531 49.8387 22.8224V28H48.5816ZM58.9911 31.0682C58.778 31.0682 58.588 31.0504 58.4211 31.0149C58.2542 30.983 58.1388 30.951 58.0749 30.919L58.3945 29.8111C58.6999 29.8892 58.9698 29.9176 59.2042 29.8963C59.4385 29.875 59.6463 29.7702 59.8274 29.582C60.012 29.3974 60.1807 29.0973 60.3334 28.6818L60.5678 28.0426L57.5422 19.8182H58.9059L61.1644 26.3381H61.2496L63.5081 19.8182H64.8718L61.3988 29.1932C61.2425 29.6158 61.049 29.9656 60.8181 30.2425C60.5873 30.5231 60.3192 30.7308 60.0138 30.8658C59.712 31.0007 59.3711 31.0682 58.9911 31.0682ZM69.4619 28.1705C68.7233 28.1705 68.0752 27.9947 67.5177 27.6431C66.9637 27.2915 66.5305 26.7997 66.218 26.1676C65.909 25.5355 65.7545 24.7969 65.7545 23.9517C65.7545 23.0994 65.909 22.3555 66.218 21.7198C66.5305 21.0842 66.9637 20.5906 67.5177 20.239C68.0752 19.8874 68.7233 19.7116 69.4619 19.7116C70.2006 19.7116 70.8469 19.8874 71.4009 20.239C71.9584 20.5906 72.3916 21.0842 72.7006 21.7198C73.0131 22.3555 73.1693 23.0994 73.1693 23.9517C73.1693 24.7969 73.0131 25.5355 72.7006 26.1676C72.3916 26.7997 71.9584 27.2915 71.4009 27.6431C70.8469 27.9947 70.2006 28.1705 69.4619 28.1705ZM69.4619 27.0412C70.023 27.0412 70.4847 26.8974 70.8469 26.6097C71.2091 26.3221 71.4772 25.9439 71.6512 25.4751C71.8252 25.0064 71.9122 24.4986 71.9122 23.9517C71.9122 23.4048 71.8252 22.8952 71.6512 22.4229C71.4772 21.9506 71.2091 21.5689 70.8469 21.2777C70.4847 20.9865 70.023 20.8409 69.4619 20.8409C68.9009 20.8409 68.4392 20.9865 68.077 21.2777C67.7148 21.5689 67.4467 21.9506 67.2727 22.4229C67.0986 22.8952 67.0116 23.4048 67.0116 23.9517C67.0116 24.4986 67.0986 25.0064 67.2727 25.4751C67.4467 25.9439 67.7148 26.3221 68.077 26.6097C68.4392 26.8974 68.9009 27.0412 69.4619 27.0412ZM80.1445 24.6548V19.8182H81.4016V28H80.1445V26.6151H80.0593C79.8675 27.0305 79.5692 27.3839 79.1644 27.6751C78.7596 27.9627 78.2482 28.1065 77.6303 28.1065C77.1189 28.1065 76.6644 27.9947 76.2667 27.771C75.8689 27.5437 75.5564 27.2028 75.3292 26.7482C75.1019 26.2901 74.9883 25.7131 74.9883 25.017V19.8182H76.2454V24.9318C76.2454 25.5284 76.4123 26.0043 76.7461 26.3594C77.0834 26.7145 77.5131 26.892 78.0351 26.892C78.3476 26.892 78.6655 26.8121 78.9886 26.6523C79.3153 26.4925 79.5888 26.2475 79.8089 25.9173C80.0327 25.587 80.1445 25.1662 80.1445 24.6548ZM83.6041 28V19.8182H84.8186V21.054H84.9038C85.0529 20.6491 85.3228 20.3207 85.7135 20.0685C86.1041 19.8164 86.5444 19.6903 87.0345 19.6903C87.1268 19.6903 87.2422 19.6921 87.3807 19.6957C87.5192 19.6992 87.624 19.7045 87.695 19.7116V20.9901C87.6524 20.9794 87.5547 20.9634 87.402 20.9421C87.2529 20.9173 87.0948 20.9048 86.9279 20.9048C86.5302 20.9048 86.1751 20.9883 85.8626 21.1552C85.5537 21.3185 85.3086 21.5458 85.1275 21.837C84.95 22.1246 84.8612 22.4531 84.8612 22.8224V28H83.6041ZM93.3743 28V17.0909H99.9582V18.2628H94.6954V21.9489H99.6172V23.1207H94.6954V26.8281H100.043V28H93.3743ZM102.069 28V19.8182H103.283V21.0966H103.39C103.56 20.6598 103.835 20.3207 104.215 20.0792C104.595 19.8342 105.052 19.7116 105.584 19.7116C106.124 19.7116 106.573 19.8342 106.932 20.0792C107.294 20.3207 107.577 20.6598 107.779 21.0966H107.864C108.074 20.674 108.388 20.3384 108.807 20.0898C109.226 19.8377 109.729 19.7116 110.314 19.7116C111.046 19.7116 111.644 19.9407 112.11 20.3988C112.575 20.8533 112.807 21.5618 112.807 22.5241V28H111.55V22.5241C111.55 21.9205 111.385 21.489 111.055 21.2298C110.725 20.9705 110.336 20.8409 109.888 20.8409C109.313 20.8409 108.867 21.0149 108.551 21.3629C108.235 21.7074 108.077 22.1442 108.077 22.6733V28H106.799V22.3963C106.799 21.9311 106.648 21.5565 106.346 21.2724C106.044 20.9847 105.655 20.8409 105.18 20.8409C104.853 20.8409 104.547 20.9279 104.263 21.1019C103.983 21.2759 103.756 21.5174 103.582 21.8263C103.411 22.1317 103.326 22.4851 103.326 22.8864V28H102.069ZM117.414 28.1918C116.895 28.1918 116.425 28.0941 116.002 27.8988C115.579 27.6999 115.244 27.4141 114.995 27.0412C114.747 26.6648 114.622 26.2102 114.622 25.6776C114.622 25.2088 114.715 24.8288 114.899 24.5376C115.084 24.2429 115.331 24.0121 115.64 23.8452C115.949 23.6783 116.29 23.554 116.662 23.4723C117.039 23.3871 117.417 23.3196 117.797 23.2699C118.294 23.206 118.697 23.158 119.006 23.1261C119.319 23.0906 119.546 23.032 119.688 22.9503C119.834 22.8686 119.906 22.7266 119.906 22.5241V22.4815C119.906 21.956 119.763 21.5476 119.475 21.2564C119.191 20.9652 118.759 20.8196 118.181 20.8196C117.58 20.8196 117.11 20.951 116.769 21.2138C116.428 21.4766 116.188 21.7571 116.05 22.0554L114.857 21.6293C115.07 21.1321 115.354 20.745 115.709 20.468C116.068 20.1875 116.458 19.9922 116.881 19.8821C117.307 19.7685 117.726 19.7116 118.138 19.7116C118.401 19.7116 118.703 19.7436 119.043 19.8075C119.388 19.8679 119.72 19.994 120.04 20.1857C120.363 20.3775 120.631 20.6669 120.844 21.054C121.057 21.4411 121.164 21.9595 121.164 22.6094V28H119.906V26.892H119.842C119.757 27.0696 119.615 27.2596 119.416 27.462C119.217 27.6644 118.953 27.8366 118.623 27.9787C118.292 28.1207 117.889 28.1918 117.414 28.1918ZM117.605 27.0625C118.102 27.0625 118.521 26.9648 118.862 26.7695C119.207 26.5742 119.466 26.3221 119.64 26.0131C119.818 25.7042 119.906 25.3793 119.906 25.0384V23.8878C119.853 23.9517 119.736 24.0103 119.555 24.0636C119.377 24.1133 119.171 24.1577 118.937 24.1967C118.706 24.2322 118.481 24.2642 118.26 24.2926C118.044 24.3175 117.868 24.3388 117.733 24.3565C117.406 24.3991 117.101 24.4684 116.817 24.5643C116.536 24.6566 116.309 24.7969 116.135 24.9851C115.965 25.1697 115.879 25.4219 115.879 25.7415C115.879 26.1783 116.041 26.5085 116.364 26.7322C116.691 26.9524 117.105 27.0625 117.605 27.0625ZM123.358 28V19.8182H124.615V28H123.358ZM123.997 18.4545C123.752 18.4545 123.541 18.3711 123.363 18.2042C123.189 18.0373 123.102 17.8366 123.102 17.6023C123.102 17.3679 123.189 17.1673 123.363 17.0004C123.541 16.8335 123.752 16.75 123.997 16.75C124.242 16.75 124.452 16.8335 124.626 17.0004C124.803 17.1673 124.892 17.3679 124.892 17.6023C124.892 17.8366 124.803 18.0373 124.626 18.2042C124.452 18.3711 124.242 18.4545 123.997 18.4545ZM128.075 17.0909V28H126.818V17.0909H128.075Z" fill="#919BA7"/>
<path d="M0.5 6C0.5 2.96244 2.96243 0.5 6 0.5H331.5V45.5H6.00001C2.96244 45.5 0.5 43.0376 0.5 40V6Z" stroke="#DAE0E6"/>
</svg>
