<svg width="21" height="20" viewBox="0 0 21 20" fill="none" xmlns="http://www.w3.org/2000/svg">
<g id="Icon">
<g id="Icon_2">
<path d="M12.1665 9.66658C12.1665 9.19987 12.1665 8.96652 12.2573 8.78826C12.3372 8.63146 12.4647 8.50397 12.6215 8.42408C12.7998 8.33325 13.0331 8.33325 13.4998 8.33325H17.4998C17.9665 8.33325 18.1999 8.33325 18.3782 8.42408C18.535 8.50397 18.6624 8.63146 18.7423 8.78826C18.8332 8.96652 18.8332 9.19987 18.8332 9.66658V10.3333C18.8332 10.8 18.8332 11.0333 18.7423 11.2116C18.6624 11.3684 18.535 11.4959 18.3782 11.5758C18.1999 11.6666 17.9665 11.6666 17.4998 11.6666H13.4998C13.0331 11.6666 12.7998 11.6666 12.6215 11.5758C12.4647 11.4959 12.3372 11.3684 12.2573 11.2116C12.1665 11.0333 12.1665 10.8 12.1665 10.3333V9.66658Z" fill="white"/>
<path d="M14.4998 3.33325H4.83317C3.89975 3.33325 3.43304 3.33325 3.07652 3.51491C2.76292 3.6747 2.50795 3.92966 2.34816 4.24327C2.1665 4.59979 2.1665 5.0665 2.1665 5.99992V13.9999C2.1665 14.9333 2.1665 15.4001 2.34816 15.7566C2.50795 16.0702 2.76292 16.3251 3.07652 16.4849C3.43304 16.6666 3.89975 16.6666 4.83317 16.6666H14.4998C15.4333 16.6666 15.9 16.6666 16.2565 16.4849C16.5701 16.3251 16.8251 16.0702 16.9848 15.7566C17.1665 15.4001 17.1665 14.9333 17.1665 13.9999V13.3332L13.4613 13.3333C13.2628 13.3333 13.0257 13.3334 12.8168 13.3164C12.5748 13.2966 12.2281 13.2458 11.8649 13.0608C11.3945 12.8211 11.012 12.4386 10.7723 11.9682C10.5873 11.605 10.5365 11.2583 10.5167 11.0163C10.4997 10.8074 10.4998 10.5703 10.4998 10.3718V9.62801C10.4998 9.42949 10.4997 9.19239 10.5167 8.98353C10.5365 8.7415 10.5873 8.39485 10.7723 8.0316C11.012 7.5612 11.3945 7.17875 11.8649 6.93906C12.2281 6.75398 12.5748 6.70324 12.8168 6.68347C13.0257 6.6664 13.2628 6.66649 13.4613 6.66657L17.1665 6.66658V5.99992C17.1665 5.0665 17.1665 4.59979 16.9848 4.24327C16.8251 3.92966 16.5701 3.6747 16.2565 3.51491C15.9 3.33325 15.4333 3.33325 14.4998 3.33325Z" fill="white"/>
</g>
</g>
</svg>
