<svg width="132" height="50" viewBox="0 0 132 50" fill="none" xmlns="http://www.w3.org/2000/svg">
<g filter="url(#filter0_d_113_53650)">
<rect x="2" y="1" width="128" height="46" rx="6" fill="#437EF7"/>
<path d="M32.0046 21.0898C31.9549 20.6246 31.7454 20.2624 31.3761 20.0032C31.0103 19.744 30.5344 19.6143 29.9485 19.6143C29.5366 19.6143 29.1832 19.6765 28.8885 19.8008C28.5938 19.9251 28.3683 20.0937 28.212 20.3068C28.0558 20.5199 27.9759 20.7631 27.9723 21.0366C27.9723 21.2638 28.0238 21.4609 28.1268 21.6278C28.2333 21.7947 28.3771 21.9368 28.5582 22.054C28.7393 22.1676 28.94 22.2635 29.1602 22.3416C29.3803 22.4197 29.6023 22.4854 29.826 22.5387L30.8487 22.7944C31.2607 22.8903 31.6566 23.0199 32.0366 23.1832C32.4201 23.3466 32.7628 23.5526 33.0646 23.8011C33.37 24.0497 33.6115 24.3498 33.7891 24.7013C33.9666 25.0529 34.0554 25.4648 34.0554 25.9371C34.0554 26.5763 33.892 27.1392 33.5653 27.6257C33.2386 28.1087 32.7663 28.4869 32.1484 28.7603C31.5341 29.0302 30.7901 29.1651 29.9165 29.1651C29.0678 29.1651 28.331 29.0337 27.706 28.771C27.0845 28.5082 26.598 28.1246 26.2464 27.6204C25.8984 27.1161 25.7102 26.5018 25.6818 25.7773H27.6261C27.6545 26.1573 27.7717 26.4734 27.9776 26.7255C28.1836 26.9776 28.4517 27.1658 28.782 27.2901C29.1158 27.4144 29.4886 27.4766 29.9006 27.4766C30.3303 27.4766 30.7067 27.4126 31.0298 27.2848C31.3565 27.1534 31.6122 26.9723 31.7969 26.7415C31.9815 26.5071 32.0756 26.2337 32.0792 25.9212C32.0756 25.6371 31.9922 25.4027 31.8288 25.218C31.6655 25.0298 31.4364 24.8736 31.1417 24.7493C30.8505 24.6214 30.5096 24.5078 30.119 24.4084L28.8778 24.0888C27.9794 23.858 27.2692 23.5082 26.7472 23.0394C26.2287 22.5671 25.9695 21.9403 25.9695 21.1591C25.9695 20.5163 26.1435 19.9535 26.4915 19.4705C26.843 18.9876 27.3207 18.6129 27.9244 18.3466C28.5281 18.0767 29.2116 17.9418 29.9751 17.9418C30.7493 17.9418 31.4276 18.0767 32.0099 18.3466C32.5959 18.6129 33.0558 18.984 33.3896 19.4599C33.7234 19.9322 33.8956 20.4755 33.9062 21.0898H32.0046ZM37.6602 24.206V29H35.732V18.0909H37.6176V22.2085H37.7135C37.9053 21.7468 38.2018 21.3828 38.6031 21.1165C39.0079 20.8466 39.5228 20.7116 40.1478 20.7116C40.716 20.7116 41.2114 20.8306 41.634 21.0685C42.0566 21.3065 42.3833 21.6545 42.6141 22.1126C42.8485 22.5707 42.9656 23.13 42.9656 23.7905V29H41.0374V24.0888C41.0374 23.5384 40.8953 23.1104 40.6112 22.805C40.3307 22.4961 39.9365 22.3416 39.4287 22.3416C39.0878 22.3416 38.7824 22.4162 38.5125 22.5653C38.2462 22.7109 38.0367 22.9222 37.884 23.1992C37.7348 23.4762 37.6602 23.8118 37.6602 24.206ZM48.5001 29.1598C47.7011 29.1598 47.0086 28.984 46.4227 28.6325C45.8367 28.2809 45.3822 27.7891 45.059 27.157C44.7394 26.5249 44.5796 25.7862 44.5796 24.9411C44.5796 24.0959 44.7394 23.3555 45.059 22.7198C45.3822 22.0842 45.8367 21.5906 46.4227 21.239C47.0086 20.8874 47.7011 20.7116 48.5001 20.7116C49.2991 20.7116 49.9916 20.8874 50.5775 21.239C51.1634 21.5906 51.6162 22.0842 51.9358 22.7198C52.259 23.3555 52.4205 24.0959 52.4205 24.9411C52.4205 25.7862 52.259 26.5249 51.9358 27.157C51.6162 27.7891 51.1634 28.2809 50.5775 28.6325C49.9916 28.984 49.2991 29.1598 48.5001 29.1598ZM48.5107 27.6151C48.944 27.6151 49.3062 27.4961 49.5974 27.2582C49.8886 27.0167 50.1052 26.6935 50.2472 26.2887C50.3928 25.8839 50.4656 25.4329 50.4656 24.9357C50.4656 24.435 50.3928 23.9822 50.2472 23.5774C50.1052 23.169 49.8886 22.8441 49.5974 22.6026C49.3062 22.3612 48.944 22.2404 48.5107 22.2404C48.0669 22.2404 47.6975 22.3612 47.4028 22.6026C47.1116 22.8441 46.8932 23.169 46.7476 23.5774C46.6056 23.9822 46.5345 24.435 46.5345 24.9357C46.5345 25.4329 46.6056 25.8839 46.7476 26.2887C46.8932 26.6935 47.1116 27.0167 47.4028 27.2582C47.6975 27.4961 48.0669 27.6151 48.5107 27.6151ZM55.5114 29L53.1996 20.8182H55.1651L56.6033 26.571H56.6779L58.1481 20.8182H60.0923L61.5625 26.5391H61.6424L63.0593 20.8182H65.0302L62.7131 29H60.7049L59.1708 23.4709H59.0589L57.5249 29H55.5114ZM70.0972 29V20.8182H71.9403V22.2085H72.0361C72.2066 21.7397 72.4889 21.3739 72.8831 21.1112C73.2773 20.8448 73.7478 20.7116 74.2947 20.7116C74.8486 20.7116 75.3156 20.8466 75.6956 21.1165C76.0791 21.3828 76.349 21.7468 76.5052 22.2085H76.5905C76.7716 21.7539 77.077 21.3917 77.5067 21.1218C77.9399 20.8484 78.453 20.7116 79.0461 20.7116C79.7989 20.7116 80.4133 20.9496 80.8891 21.4254C81.365 21.9013 81.6029 22.5955 81.6029 23.5082V29H79.6693V23.8065C79.6693 23.2987 79.5344 22.9276 79.2645 22.6932C78.9946 22.4553 78.6643 22.3363 78.2737 22.3363C77.8085 22.3363 77.4445 22.4819 77.1817 22.7731C76.9225 23.0607 76.7929 23.4354 76.7929 23.897V29H74.9019V23.7266C74.9019 23.304 74.7741 22.9666 74.5184 22.7145C74.2662 22.4624 73.936 22.3363 73.5276 22.3363C73.2506 22.3363 72.9985 22.4073 72.7712 22.5494C72.5439 22.6879 72.3628 22.8849 72.2279 23.1406C72.093 23.3928 72.0255 23.6875 72.0255 24.0249V29H70.0972ZM87.128 29.1598C86.329 29.1598 85.6365 28.984 85.0506 28.6325C84.4647 28.2809 84.0101 27.7891 83.687 27.157C83.3674 26.5249 83.2076 25.7862 83.2076 24.9411C83.2076 24.0959 83.3674 23.3555 83.687 22.7198C84.0101 22.0842 84.4647 21.5906 85.0506 21.239C85.6365 20.8874 86.329 20.7116 87.128 20.7116C87.927 20.7116 88.6195 20.8874 89.2054 21.239C89.7914 21.5906 90.2441 22.0842 90.5637 22.7198C90.8869 23.3555 91.0485 24.0959 91.0485 24.9411C91.0485 25.7862 90.8869 26.5249 90.5637 27.157C90.2441 27.7891 89.7914 28.2809 89.2054 28.6325C88.6195 28.984 87.927 29.1598 87.128 29.1598ZM87.1387 27.6151C87.5719 27.6151 87.9341 27.4961 88.2253 27.2582C88.5165 27.0167 88.7331 26.6935 88.8752 26.2887C89.0208 25.8839 89.0936 25.4329 89.0936 24.9357C89.0936 24.435 89.0208 23.9822 88.8752 23.5774C88.7331 23.169 88.5165 22.8441 88.2253 22.6026C87.9341 22.3612 87.5719 22.2404 87.1387 22.2404C86.6948 22.2404 86.3255 22.3612 86.0307 22.6026C85.7395 22.8441 85.5211 23.169 85.3755 23.5774C85.2335 23.9822 85.1625 24.435 85.1625 24.9357C85.1625 25.4329 85.2335 25.8839 85.3755 26.2887C85.5211 26.6935 85.7395 27.0167 86.0307 27.2582C86.3255 27.4961 86.6948 27.6151 87.1387 27.6151ZM92.6851 29V20.8182H94.5548V22.1818H94.64C94.7892 21.7095 95.0448 21.3455 95.407 21.0898C95.7728 20.8306 96.1901 20.701 96.6588 20.701C96.7654 20.701 96.8843 20.7063 97.0157 20.717C97.1507 20.7241 97.2625 20.7365 97.3513 20.7543V22.5281C97.2696 22.4996 97.14 22.4748 96.9624 22.4535C96.7884 22.4286 96.6198 22.4162 96.4564 22.4162C96.1048 22.4162 95.7888 22.4925 95.5083 22.6452C95.2313 22.7944 95.0129 23.0021 94.8531 23.2685C94.6933 23.5348 94.6134 23.842 94.6134 24.19V29H92.6851ZM101.918 29.1598C101.097 29.1598 100.389 28.9893 99.7923 28.6484C99.1992 28.304 98.7429 27.8175 98.4233 27.1889C98.1037 26.5568 97.9439 25.8129 97.9439 24.957C97.9439 24.1154 98.1037 23.3768 98.4233 22.7411C98.7464 22.1019 99.1974 21.6048 99.7763 21.2496C100.355 20.891 101.035 20.7116 101.816 20.7116C102.321 20.7116 102.797 20.7933 103.244 20.9567C103.695 21.1165 104.093 21.3651 104.437 21.7024C104.785 22.0398 105.059 22.4695 105.257 22.9915C105.456 23.5099 105.556 24.1278 105.556 24.8452V25.4364H98.8494V24.1367H103.707C103.704 23.7674 103.624 23.4389 103.468 23.1513C103.311 22.8601 103.093 22.631 102.812 22.4641C102.536 22.2972 102.212 22.2138 101.843 22.2138C101.449 22.2138 101.103 22.3097 100.804 22.5014C100.506 22.6896 100.273 22.9382 100.107 23.2472C99.9432 23.5526 99.8597 23.8881 99.8562 24.2539V25.3885C99.8562 25.8643 99.9432 26.2727 100.117 26.6136C100.291 26.951 100.534 27.2102 100.847 27.3913C101.159 27.5689 101.525 27.6577 101.944 27.6577C102.225 27.6577 102.479 27.6186 102.706 27.5405C102.933 27.4588 103.13 27.3398 103.297 27.1836C103.464 27.0273 103.59 26.8338 103.675 26.603L105.476 26.8054C105.362 27.2812 105.146 27.6967 104.826 28.0518C104.51 28.4034 104.105 28.6768 103.612 28.8722C103.118 29.0639 102.553 29.1598 101.918 29.1598Z" fill="white"/>
</g>
<defs>
<filter id="filter0_d_113_53650" x="0" y="0" width="132" height="50" filterUnits="userSpaceOnUse" color-interpolation-filters="sRGB">
<feFlood flood-opacity="0" result="BackgroundImageFix"/>
<feColorMatrix in="SourceAlpha" type="matrix" values="0 0 0 0 0 0 0 0 0 0 0 0 0 0 0 0 0 0 127 0" result="hardAlpha"/>
<feOffset dy="1"/>
<feGaussianBlur stdDeviation="1"/>
<feComposite in2="hardAlpha" operator="out"/>
<feColorMatrix type="matrix" values="0 0 0 0 0.0627451 0 0 0 0 0.0941176 0 0 0 0 0.156863 0 0 0 0.04 0"/>
<feBlend mode="normal" in2="BackgroundImageFix" result="effect1_dropShadow_113_53650"/>
<feBlend mode="normal" in="SourceGraphic" in2="effect1_dropShadow_113_53650" result="shape"/>
</filter>
</defs>
</svg>
