<svg width="473" height="50" viewBox="0 0 473 50" fill="none" xmlns="http://www.w3.org/2000/svg">
<g filter="url(#filter0_d_3_58581)">
<g clip-path="url(#clip0_3_58581)">
<path d="M2.5 6C2.5 3.51472 4.51472 1.5 7 1.5H383.5V46.5H7C4.51472 46.5 2.5 44.4853 2.5 42V6Z" fill="white"/>
<g clip-path="url(#clip1_3_58581)">
<path d="M32.4595 33.8737C32.85 34.2642 33.4832 34.2642 33.8737 33.8737C34.2642 33.4832 34.2642 32.85 33.8737 32.4595L32.4595 33.8737ZM28.9313 22.3823C28.9313 25.9992 25.9992 28.9313 22.3823 28.9313V30.9313C27.1038 30.9313 30.9313 27.1038 30.9313 22.3823H28.9313ZM22.3823 28.9313C18.7653 28.9313 15.8333 25.9992 15.8333 22.3823H13.8333C13.8333 27.1038 17.6608 30.9313 22.3823 30.9313V28.9313ZM15.8333 22.3823C15.8333 18.7653 18.7653 15.8333 22.3823 15.8333V13.8333C17.6608 13.8333 13.8333 17.6608 13.8333 22.3823H15.8333ZM22.3823 15.8333C25.9992 15.8333 28.9313 18.7653 28.9313 22.3823H30.9313C30.9313 17.6608 27.1038 13.8333 22.3823 13.8333V15.8333ZM27.0673 28.4815L32.4595 33.8737L33.8737 32.4595L28.4815 27.0673L27.0673 28.4815Z" fill="#919BA7"/>
</g>
<path d="M49.1484 20.9567C49.0916 20.4524 48.8572 20.0618 48.4453 19.7848C48.0334 19.5043 47.5149 19.364 46.8899 19.364C46.4425 19.364 46.0554 19.435 45.7287 19.5771C45.402 19.7156 45.1481 19.9073 44.967 20.1523C44.7894 20.3938 44.7006 20.669 44.7006 20.978C44.7006 21.2372 44.761 21.4609 44.8817 21.6491C45.006 21.8374 45.1676 21.9954 45.3665 22.1232C45.5689 22.2475 45.7855 22.3523 46.0163 22.4375C46.2472 22.5192 46.4691 22.5866 46.6822 22.6399L47.7475 22.9169C48.0955 23.0021 48.4524 23.1175 48.8182 23.2631C49.1839 23.4087 49.5231 23.6005 49.8356 23.8384C50.1481 24.0763 50.4002 24.3711 50.592 24.7227C50.7873 25.0742 50.8849 25.495 50.8849 25.9851C50.8849 26.603 50.7251 27.1516 50.4055 27.631C50.0895 28.1104 49.6296 28.4886 49.0259 28.7656C48.4258 29.0426 47.6996 29.1811 46.8473 29.1811C46.0305 29.1811 45.3239 29.0515 44.7273 28.7923C44.1307 28.533 43.6637 28.1655 43.3263 27.6896C42.989 27.2102 42.8026 26.642 42.767 25.9851H44.4183C44.4503 26.3793 44.5781 26.7077 44.8018 26.9705C45.0291 27.2298 45.3185 27.4233 45.6701 27.5511C46.0252 27.6754 46.4141 27.7376 46.8366 27.7376C47.3018 27.7376 47.7156 27.6648 48.0778 27.5192C48.4435 27.37 48.7312 27.1641 48.9407 26.9013C49.1502 26.6349 49.255 26.3242 49.255 25.9691C49.255 25.646 49.1626 25.3814 48.978 25.1754C48.7969 24.9695 48.5501 24.799 48.2376 24.6641C47.9286 24.5291 47.5788 24.4102 47.1882 24.3072L45.8991 23.9556C45.0256 23.7177 44.3331 23.3679 43.8217 22.9062C43.3139 22.4446 43.06 21.8338 43.06 21.0739C43.06 20.4453 43.2305 19.8967 43.5714 19.4279C43.9123 18.9592 44.3739 18.5952 44.9563 18.3359C45.5387 18.0732 46.1957 17.9418 46.9272 17.9418C47.6658 17.9418 48.3175 18.0714 48.8821 18.3306C49.4503 18.5898 49.8977 18.9467 50.2244 19.4013C50.5511 19.8523 50.7216 20.3707 50.7358 20.9567H49.1484ZM56.1503 29.1651C55.3442 29.1651 54.6499 28.9929 54.0675 28.6484C53.4887 28.3004 53.0412 27.8121 52.7252 27.1836C52.4127 26.5515 52.2564 25.8111 52.2564 24.9624C52.2564 24.1243 52.4127 23.3857 52.7252 22.7464C53.0412 22.1072 53.4816 21.6083 54.0462 21.2496C54.6144 20.891 55.2785 20.7116 56.0384 20.7116C56.5001 20.7116 56.9475 20.788 57.3807 20.9407C57.814 21.0934 58.2028 21.3331 58.5473 21.6598C58.8917 21.9865 59.1634 22.4109 59.3623 22.9329C59.5611 23.4513 59.6606 24.0817 59.6606 24.8239V25.3885H53.1567V24.1953H58.0998C58.0998 23.7763 58.0146 23.4052 57.8442 23.082C57.6737 22.7553 57.434 22.4979 57.1251 22.3097C56.8197 22.1214 56.461 22.0273 56.0491 22.0273C55.6016 22.0273 55.211 22.1374 54.8772 22.3576C54.5469 22.5742 54.2912 22.8583 54.1101 23.2099C53.9326 23.5579 53.8438 23.9361 53.8438 24.3445V25.2766C53.8438 25.8235 53.9397 26.2887 54.1314 26.6722C54.3268 27.0558 54.5984 27.3487 54.9464 27.5511C55.2944 27.75 55.701 27.8494 56.1662 27.8494C56.4681 27.8494 56.7433 27.8068 56.9919 27.7216C57.2405 27.6328 57.4553 27.5014 57.6364 27.3274C57.8175 27.1534 57.956 26.9386 58.0519 26.6829L59.5594 26.9545C59.4386 27.3984 59.222 27.7873 58.9095 28.1211C58.6006 28.4513 58.2117 28.7088 57.743 28.8935C57.2778 29.0746 56.7469 29.1651 56.1503 29.1651ZM63.7087 29.1811C63.1903 29.1811 62.7215 29.0852 62.3025 28.8935C61.8835 28.6982 61.5514 28.4158 61.3064 28.0465C61.0649 27.6772 60.9442 27.2244 60.9442 26.6882C60.9442 26.2266 61.033 25.8466 61.2105 25.5483C61.3881 25.25 61.6278 25.0138 61.9296 24.8398C62.2315 24.6658 62.5688 24.5344 62.9417 24.4457C63.3146 24.3569 63.6945 24.2894 64.0816 24.2433C64.5717 24.1864 64.9694 24.1403 65.2748 24.1048C65.5802 24.0657 65.8021 24.0036 65.9406 23.9183C66.0791 23.8331 66.1484 23.6946 66.1484 23.5028V23.4656C66.1484 23.0004 66.017 22.6399 65.7542 22.3842C65.495 22.1286 65.1079 22.0007 64.593 22.0007C64.0567 22.0007 63.6342 22.1197 63.3252 22.3576C63.0198 22.592 62.8085 22.853 62.6913 23.1406L61.1945 22.7997C61.3721 22.3026 61.6313 21.9013 61.9722 21.5959C62.3167 21.2869 62.7126 21.0632 63.1601 20.9247C63.6075 20.7827 64.0781 20.7116 64.5717 20.7116C64.8984 20.7116 65.2446 20.7507 65.6104 20.8288C65.9797 20.9034 66.3241 21.0419 66.6437 21.2443C66.9669 21.4467 67.2315 21.7362 67.4374 22.1126C67.6434 22.4854 67.7464 22.9702 67.7464 23.5668V29H66.191V27.8814H66.1271C66.0241 28.0874 65.8696 28.2898 65.6636 28.4886C65.4577 28.6875 65.1931 28.8526 64.87 28.984C64.5468 29.1154 64.1597 29.1811 63.7087 29.1811ZM64.055 27.9027C64.4953 27.9027 64.8717 27.8157 65.1842 27.6417C65.5003 27.4677 65.74 27.2404 65.9033 26.9599C66.0702 26.6758 66.1537 26.3722 66.1537 26.049V24.9943C66.0969 25.0511 65.9868 25.1044 65.8234 25.1541C65.6636 25.2003 65.4808 25.2411 65.2748 25.2766C65.0688 25.3086 64.8682 25.3388 64.6729 25.3672C64.4776 25.392 64.3142 25.4134 64.1828 25.4311C63.8739 25.4702 63.5915 25.5359 63.3359 25.6282C63.0837 25.7205 62.8813 25.8537 62.7286 26.0277C62.5795 26.1982 62.5049 26.4254 62.5049 26.7095C62.5049 27.1037 62.6505 27.402 62.9417 27.6044C63.2329 27.8033 63.604 27.9027 64.055 27.9027ZM69.7677 29V20.8182H71.3072V22.1179H71.3924C71.5415 21.6776 71.8043 21.3313 72.1807 21.0792C72.5607 20.8235 72.9904 20.6957 73.4698 20.6957C73.5692 20.6957 73.6864 20.6992 73.8214 20.7063C73.9599 20.7134 74.0682 20.7223 74.1463 20.733V22.2564C74.0824 22.2386 73.9687 22.2191 73.8054 22.1978C73.642 22.1729 73.4787 22.1605 73.3153 22.1605C72.9389 22.1605 72.6033 22.2404 72.3086 22.4002C72.0174 22.5565 71.7866 22.7749 71.6161 23.0554C71.4457 23.3324 71.3604 23.6484 71.3604 24.0036V29H69.7677ZM78.578 29.1651C77.7861 29.1651 77.1043 28.9858 76.5325 28.6271C75.9643 28.2649 75.5276 27.766 75.2222 27.1303C74.9168 26.4947 74.7641 25.7667 74.7641 24.9464C74.7641 24.1154 74.9203 23.3821 75.2328 22.7464C75.5453 22.1072 75.9857 21.6083 76.5538 21.2496C77.122 20.891 77.7914 20.7116 78.562 20.7116C79.1835 20.7116 79.7374 20.8271 80.2239 21.0579C80.7104 21.2852 81.1028 21.6048 81.4011 22.0167C81.703 22.4286 81.8823 22.9098 81.9391 23.4602H80.3891C80.3038 23.0767 80.1085 22.7464 79.8031 22.4695C79.5013 22.1925 79.0964 22.054 78.5886 22.054C78.1447 22.054 77.7559 22.1712 77.4221 22.4055C77.0918 22.6364 76.8344 22.9666 76.6497 23.3963C76.4651 23.8224 76.3727 24.3267 76.3727 24.9091C76.3727 25.5057 76.4633 26.0206 76.6444 26.4538C76.8255 26.8871 77.0812 27.2227 77.4114 27.4606C77.7452 27.6985 78.1376 27.8175 78.5886 27.8175C78.8905 27.8175 79.1639 27.7624 79.4089 27.6523C79.6575 27.5387 79.8653 27.3771 80.0322 27.1676C80.2026 26.9581 80.3216 26.706 80.3891 26.4112H81.9391C81.8823 26.9403 81.7101 27.4126 81.4224 27.8281C81.1348 28.2436 80.7495 28.5703 80.2665 28.8082C79.7871 29.0462 79.2243 29.1651 78.578 29.1651ZM85.135 24.142V29H83.5423V18.0909H85.1137V22.1499H85.2149C85.4067 21.7095 85.6997 21.3597 86.0938 21.1005C86.488 20.8413 87.0029 20.7116 87.6386 20.7116C88.1997 20.7116 88.6897 20.8271 89.1088 21.0579C89.5313 21.2887 89.858 21.6332 90.0889 22.0913C90.3232 22.5458 90.4404 23.114 90.4404 23.7958V29H88.8477V23.9876C88.8477 23.3874 88.6933 22.9222 88.3843 22.592C88.0754 22.2582 87.6457 22.0913 87.0953 22.0913C86.7188 22.0913 86.3815 22.1712 86.0832 22.331C85.7884 22.4908 85.5558 22.7251 85.3854 23.0341C85.2185 23.3395 85.135 23.7088 85.135 24.142Z" fill="#919BA7"/>
<path d="M2.5 6C2.5 3.51472 4.51472 1.5 7 1.5H383.5V46.5H7C4.51472 46.5 2.5 44.4853 2.5 42V6Z" stroke="#DAE0E6"/>
<g filter="url(#filter1_d_3_58581)">
<path d="M384 1H465C468.314 1 471 3.68629 471 7V41C471 44.3137 468.314 47 465 47H384V1Z" fill="#437EF7"/>
<path d="M409.005 21.0898C408.955 20.6246 408.745 20.2624 408.376 20.0032C408.01 19.744 407.534 19.6143 406.949 19.6143C406.537 19.6143 406.183 19.6765 405.888 19.8008C405.594 19.9251 405.368 20.0937 405.212 20.3068C405.056 20.5199 404.976 20.7631 404.972 21.0366C404.972 21.2638 405.024 21.4609 405.127 21.6278C405.233 21.7947 405.377 21.9368 405.558 22.054C405.739 22.1676 405.94 22.2635 406.16 22.3416C406.38 22.4197 406.602 22.4854 406.826 22.5387L407.849 22.7944C408.261 22.8903 408.657 23.0199 409.037 23.1832C409.42 23.3466 409.763 23.5526 410.065 23.8011C410.37 24.0497 410.612 24.3498 410.789 24.7013C410.967 25.0529 411.055 25.4648 411.055 25.9371C411.055 26.5763 410.892 27.1392 410.565 27.6257C410.239 28.1087 409.766 28.4869 409.148 28.7603C408.534 29.0302 407.79 29.1651 406.917 29.1651C406.068 29.1651 405.331 29.0337 404.706 28.771C404.085 28.5082 403.598 28.1246 403.246 27.6204C402.898 27.1161 402.71 26.5018 402.682 25.7773H404.626C404.654 26.1573 404.772 26.4734 404.978 26.7255C405.184 26.9776 405.452 27.1658 405.782 27.2901C406.116 27.4144 406.489 27.4766 406.901 27.4766C407.33 27.4766 407.707 27.4126 408.03 27.2848C408.357 27.1534 408.612 26.9723 408.797 26.7415C408.982 26.5071 409.076 26.2337 409.079 25.9212C409.076 25.6371 408.992 25.4027 408.829 25.218C408.665 25.0298 408.436 24.8736 408.142 24.7493C407.85 24.6214 407.51 24.5078 407.119 24.4084L405.878 24.0888C404.979 23.858 404.269 23.5082 403.747 23.0394C403.229 22.5671 402.969 21.9403 402.969 21.1591C402.969 20.5163 403.143 19.9535 403.491 19.4705C403.843 18.9876 404.321 18.6129 404.924 18.3466C405.528 18.0767 406.212 17.9418 406.975 17.9418C407.749 17.9418 408.428 18.0767 409.01 18.3466C409.596 18.6129 410.056 18.984 410.39 19.4599C410.723 19.9322 410.896 20.4755 410.906 21.0898H409.005ZM416.354 29.1598C415.534 29.1598 414.825 28.9893 414.229 28.6484C413.636 28.304 413.179 27.8175 412.86 27.1889C412.54 26.5568 412.38 25.8129 412.38 24.957C412.38 24.1154 412.54 23.3768 412.86 22.7411C413.183 22.1019 413.634 21.6048 414.213 21.2496C414.792 20.891 415.472 20.7116 416.253 20.7116C416.757 20.7116 417.233 20.7933 417.68 20.9567C418.131 21.1165 418.529 21.3651 418.874 21.7024C419.222 22.0398 419.495 22.4695 419.694 22.9915C419.893 23.5099 419.992 24.1278 419.992 24.8452V25.4364H413.286V24.1367H418.144C418.14 23.7674 418.06 23.4389 417.904 23.1513C417.748 22.8601 417.53 22.631 417.249 22.4641C416.972 22.2972 416.649 22.2138 416.28 22.2138C415.885 22.2138 415.539 22.3097 415.241 22.5014C414.943 22.6896 414.71 22.9382 414.543 23.2472C414.38 23.5526 414.296 23.8881 414.293 24.2539V25.3885C414.293 25.8643 414.38 26.2727 414.554 26.6136C414.728 26.951 414.971 27.2102 415.283 27.3913C415.596 27.5689 415.962 27.6577 416.381 27.6577C416.661 27.6577 416.915 27.6186 417.142 27.5405C417.37 27.4588 417.567 27.3398 417.734 27.1836C417.901 27.0273 418.027 26.8338 418.112 26.603L419.912 26.8054C419.799 27.2812 419.582 27.6967 419.263 28.0518C418.946 28.4034 418.542 28.6768 418.048 28.8722C417.554 29.0639 416.99 29.1598 416.354 29.1598ZM423.978 29.1651C423.46 29.1651 422.993 29.0728 422.577 28.8881C422.165 28.6999 421.838 28.4229 421.597 28.0572C421.359 27.6914 421.24 27.2404 421.24 26.7042C421.24 26.2425 421.325 25.8608 421.496 25.5589C421.666 25.2571 421.899 25.0156 422.194 24.8345C422.488 24.6534 422.82 24.5167 423.19 24.4244C423.563 24.3285 423.948 24.2592 424.346 24.2166C424.825 24.1669 425.214 24.1225 425.512 24.0835C425.81 24.0408 426.027 23.9769 426.162 23.8917C426.3 23.8029 426.37 23.6662 426.37 23.4815V23.4496C426.37 23.0483 426.251 22.7376 426.013 22.5174C425.775 22.2972 425.432 22.1871 424.985 22.1871C424.512 22.1871 424.138 22.2901 423.861 22.4961C423.587 22.7021 423.403 22.9453 423.307 23.2259L421.506 22.9702C421.648 22.473 421.883 22.0575 422.21 21.7237C422.536 21.3864 422.936 21.1342 423.408 20.9673C423.88 20.7969 424.402 20.7116 424.974 20.7116C425.368 20.7116 425.761 20.7578 426.151 20.8501C426.542 20.9425 426.899 21.0952 427.222 21.3082C427.545 21.5178 427.804 21.8036 428 22.1658C428.199 22.5281 428.298 22.9808 428.298 23.5241V29H426.444V27.8761H426.38C426.263 28.1033 426.098 28.3164 425.885 28.5153C425.675 28.7106 425.411 28.8686 425.091 28.9893C424.775 29.1065 424.404 29.1651 423.978 29.1651ZM424.479 27.7482C424.866 27.7482 425.201 27.6719 425.485 27.5192C425.77 27.3629 425.988 27.157 426.141 26.9013C426.297 26.6456 426.375 26.3668 426.375 26.065V25.1009C426.315 25.1506 426.212 25.1967 426.066 25.2393C425.924 25.282 425.764 25.3192 425.587 25.3512C425.409 25.3832 425.233 25.4116 425.059 25.4364C424.885 25.4613 424.734 25.4826 424.607 25.5004C424.319 25.5394 424.061 25.6033 423.834 25.6921C423.607 25.7809 423.428 25.9052 423.296 26.065C423.165 26.2212 423.099 26.4237 423.099 26.6722C423.099 27.0273 423.229 27.2955 423.488 27.4766C423.747 27.6577 424.077 27.7482 424.479 27.7482ZM430.237 29V20.8182H432.107V22.1818H432.192C432.341 21.7095 432.597 21.3455 432.959 21.0898C433.325 20.8306 433.742 20.701 434.211 20.701C434.317 20.701 434.436 20.7063 434.567 20.717C434.702 20.7241 434.814 20.7365 434.903 20.7543V22.5281C434.821 22.4996 434.692 22.4748 434.514 22.4535C434.34 22.4286 434.172 22.4162 434.008 22.4162C433.657 22.4162 433.341 22.4925 433.06 22.6452C432.783 22.7944 432.565 23.0021 432.405 23.2685C432.245 23.5348 432.165 23.842 432.165 24.19V29H430.237ZM439.416 29.1598C438.599 29.1598 437.898 28.9805 437.312 28.6218C436.73 28.2631 436.28 27.7678 435.964 27.1357C435.652 26.5 435.496 25.7685 435.496 24.9411C435.496 24.1101 435.655 23.3768 435.975 22.7411C436.295 22.1019 436.746 21.6048 437.328 21.2496C437.914 20.891 438.606 20.7116 439.405 20.7116C440.07 20.7116 440.657 20.8342 441.169 21.0792C441.684 21.3207 442.094 21.6634 442.399 22.1072C442.704 22.5476 442.878 23.0625 442.921 23.652H441.078C441.003 23.2578 440.826 22.9293 440.545 22.6665C440.268 22.4002 439.897 22.267 439.432 22.267C439.038 22.267 438.692 22.3736 438.393 22.5866C438.095 22.7962 437.862 23.098 437.696 23.4922C437.532 23.8864 437.451 24.3587 437.451 24.9091C437.451 25.4666 437.532 25.946 437.696 26.3473C437.859 26.745 438.088 27.0522 438.383 27.2688C438.681 27.4819 439.031 27.5884 439.432 27.5884C439.716 27.5884 439.97 27.5352 440.194 27.4286C440.421 27.3185 440.611 27.1605 440.764 26.9545C440.916 26.7486 441.021 26.4982 441.078 26.2035H442.921C442.875 26.7823 442.704 27.2955 442.41 27.7429C442.115 28.1868 441.714 28.5348 441.206 28.7869C440.698 29.0355 440.101 29.1598 439.416 29.1598ZM446.433 24.206V29H444.504V18.0909H446.39V22.2085H446.486C446.678 21.7468 446.974 21.3828 447.376 21.1165C447.78 20.8466 448.295 20.7116 448.92 20.7116C449.488 20.7116 449.984 20.8306 450.406 21.0685C450.829 21.3065 451.156 21.6545 451.387 22.1126C451.621 22.5707 451.738 23.13 451.738 23.7905V29H449.81V24.0888C449.81 23.5384 449.668 23.1104 449.384 22.805C449.103 22.4961 448.709 22.3416 448.201 22.3416C447.86 22.3416 447.555 22.4162 447.285 22.5653C447.019 22.7109 446.809 22.9222 446.656 23.1992C446.507 23.4762 446.433 23.8118 446.433 24.206Z" fill="white"/>
</g>
</g>
</g>
<defs>
<filter id="filter0_d_3_58581" x="0" y="0" width="473" height="50" filterUnits="userSpaceOnUse" color-interpolation-filters="sRGB">
<feFlood flood-opacity="0" result="BackgroundImageFix"/>
<feColorMatrix in="SourceAlpha" type="matrix" values="0 0 0 0 0 0 0 0 0 0 0 0 0 0 0 0 0 0 127 0" result="hardAlpha"/>
<feOffset dy="1"/>
<feGaussianBlur stdDeviation="1"/>
<feComposite in2="hardAlpha" operator="out"/>
<feColorMatrix type="matrix" values="0 0 0 0 0.0627451 0 0 0 0 0.0941176 0 0 0 0 0.156863 0 0 0 0.04 0"/>
<feBlend mode="normal" in2="BackgroundImageFix" result="effect1_dropShadow_3_58581"/>
<feBlend mode="normal" in="SourceGraphic" in2="effect1_dropShadow_3_58581" result="shape"/>
</filter>
<filter id="filter1_d_3_58581" x="382" y="0" width="91" height="50" filterUnits="userSpaceOnUse" color-interpolation-filters="sRGB">
<feFlood flood-opacity="0" result="BackgroundImageFix"/>
<feColorMatrix in="SourceAlpha" type="matrix" values="0 0 0 0 0 0 0 0 0 0 0 0 0 0 0 0 0 0 127 0" result="hardAlpha"/>
<feOffset dy="1"/>
<feGaussianBlur stdDeviation="1"/>
<feComposite in2="hardAlpha" operator="out"/>
<feColorMatrix type="matrix" values="0 0 0 0 0.0627451 0 0 0 0 0.0941176 0 0 0 0 0.156863 0 0 0 0.04 0"/>
<feBlend mode="normal" in2="BackgroundImageFix" result="effect1_dropShadow_3_58581"/>
<feBlend mode="normal" in="SourceGraphic" in2="effect1_dropShadow_3_58581" result="shape"/>
</filter>
<clipPath id="clip0_3_58581">
<rect x="2" y="1" width="469" height="46" rx="6" fill="white"/>
</clipPath>
<clipPath id="clip1_3_58581">
<rect width="20" height="20" fill="white" transform="translate(14 14)"/>
</clipPath>
</defs>
</svg>
