<svg width="33" height="32" viewBox="0 0 33 32" fill="none" xmlns="http://www.w3.org/2000/svg">
<g id="Icon">
<g id="Icon_2">
<path d="M3.33301 12.2667C3.33301 10.7732 3.33301 10.0265 3.62366 9.45603C3.87932 8.95426 4.28727 8.54631 4.78903 8.29065C5.35946 8 6.1062 8 7.59967 8H17.733C19.2265 8 19.9732 8 20.5436 8.29065C21.0454 8.54631 21.4534 8.95426 21.709 9.45603C21.9997 10.0265 21.9997 10.7732 21.9997 12.2667V19.7333C21.9997 21.2268 21.9997 21.9735 21.709 22.544C21.4534 23.0457 21.0454 23.4537 20.5436 23.7094C19.9732 24 19.2265 24 17.733 24H7.59967C6.1062 24 5.35946 24 4.78903 23.7094C4.28727 23.4537 3.87932 23.0457 3.62366 22.544C3.33301 21.9735 3.33301 21.2268 3.33301 19.7333V12.2667Z" fill="#437EF7"/>
<path d="M28.6663 15.253V16.747C28.6663 18.7456 28.6663 19.7449 28.248 20.4009C27.8817 20.9751 27.3097 21.3874 26.6491 21.5532C25.933 21.7331 25.0426 21.4576 23.333 20.8888V11.1112C25.0426 10.5424 25.933 10.2669 26.6491 10.4468C27.3097 10.6126 27.8817 11.0249 28.248 11.5991C28.6663 12.2551 28.6663 13.2544 28.6663 15.253Z" fill="#437EF7"/>
</g>
</g>
</svg>
