<svg width="33" height="32" viewBox="0 0 33 32" fill="none" xmlns="http://www.w3.org/2000/svg">
<g id="Icon">
<g id="Icon_2">
<path d="M23.3909 14.2763L15.1878 22.4793C13.9326 20.2473 12.0865 18.4013 9.85451 17.146L20.1586 6.84194C20.6866 6.31393 20.9506 6.04992 21.255 5.951C21.5228 5.86399 21.8113 5.86399 22.0791 5.951C22.3835 6.04992 22.6475 6.31393 23.1756 6.84195L25.4919 9.1583C26.0199 9.68632 26.2839 9.95033 26.3828 10.2548C26.4699 10.5226 26.4699 10.811 26.3828 11.0788C26.2839 11.3833 26.0199 11.6473 25.4919 12.1753L25.2765 12.3906L27.4718 14.5859C28.2529 15.367 28.2529 16.6333 27.4718 17.4143L23.9432 20.9429C23.4225 21.4636 22.5783 21.4636 22.0576 20.9429C21.5369 20.4222 21.5369 19.578 22.0576 19.0573L25.1148 16.0001L23.3909 14.2763Z" fill="#437EF7"/>
<path d="M8.01521 19.6223L7.0163 22.6191C6.58203 23.9219 6.3649 24.5733 6.51937 25.0064C6.65379 25.3834 6.95044 25.6801 7.3274 25.8145C7.76058 25.9689 8.41199 25.7518 9.71476 25.3176L12.7115 24.3186C12.8625 24.2683 12.9818 24.2285 13.0814 24.1933C11.9974 22.067 10.2668 20.3364 8.14059 19.2524C8.1053 19.3521 8.06553 19.4714 8.01521 19.6223Z" fill="#437EF7"/>
</g>
</g>
</svg>
