<svg width="30" height="30" viewBox="0 0 30 30" fill="none" xmlns="http://www.w3.org/2000/svg">
<path fill-rule="evenodd" clip-rule="evenodd" d="M0.333252 14.9999C0.333252 6.89974 6.89974 0.333252 14.9999 0.333252C23.1001 0.333252 29.6666 6.89974 29.6666 14.9999C29.6666 23.1001 23.1001 29.6666 14.9999 29.6666C6.89974 29.6666 0.333252 23.1001 0.333252 14.9999ZM14.9999 4.33325C15.7363 4.33325 16.3333 4.93021 16.3333 5.66658V10.8518C16.3333 11.5881 15.7363 12.1851 14.9999 12.1851C14.2635 12.1851 13.6666 11.5881 13.6666 10.8518V5.66658C13.6666 4.93021 14.2635 4.33325 14.9999 4.33325ZM24.3333 16.3333C25.0696 16.3333 25.6666 15.7363 25.6666 14.9999C25.6666 14.2635 25.0696 13.6666 24.3333 13.6666H19.1481C18.4117 13.6666 17.8147 14.2635 17.8147 14.9999C17.8147 15.7363 18.4117 16.3333 19.1481 16.3333H24.3333ZM14.9999 17.8147C15.7363 17.8147 16.3333 18.4117 16.3333 19.1481V24.3333C16.3333 25.0696 15.7363 25.6666 14.9999 25.6666C14.2635 25.6666 13.6666 25.0696 13.6666 24.3333V19.1481C13.6666 18.4117 14.2635 17.8147 14.9999 17.8147ZM10.8518 16.3333C11.5881 16.3333 12.1851 15.7363 12.1851 14.9999C12.1851 14.2635 11.5881 13.6666 10.8518 13.6666H5.66658C4.93021 13.6666 4.33325 14.2635 4.33325 14.9999C4.33325 15.7363 4.93021 16.3333 5.66658 16.3333H10.8518Z" fill="white"/>
</svg>
