<svg width="15" height="14" viewBox="0 0 15 14" fill="none" xmlns="http://www.w3.org/2000/svg">
<path d="M4.07767 13.7375V4.73341H1.08485V13.7375H4.07798H4.07767ZM2.58188 3.50427C3.62532 3.50427 4.27493 2.81287 4.27493 1.9488C4.2554 1.06505 3.62532 0.392944 2.60173 0.392944C1.57743 0.392944 0.908447 1.06505 0.908447 1.94873C0.908447 2.81279 1.55782 3.50419 2.56228 3.50419H2.58165L2.58188 3.50427ZM5.73423 13.7375H8.72681V8.70974C8.72681 8.44099 8.74634 8.17154 8.8254 7.97959C9.04165 7.44169 9.53407 6.8849 10.361 6.8849C11.4437 6.8849 11.877 7.71052 11.877 8.92107V13.7375H14.8695V8.57482C14.8695 5.80927 13.3933 4.52232 11.4243 4.52232C9.81001 4.52232 9.10102 5.42458 8.70712 6.03912H8.72704V4.73373H5.73438C5.77345 5.57841 5.73415 13.7378 5.73415 13.7378L5.73423 13.7375Z" fill="white"/>
</svg>
