<svg width="22" height="22" viewBox="0 0 22 22" fill="none" xmlns="http://www.w3.org/2000/svg">
<g id="Social platforms logo" clip-path="url(#clip0_376_46012)">
<g id="Logo">
<path id="Vector" d="M21.7823 11.2527C21.7823 10.505 21.7217 9.7532 21.5923 9.01758H11.2168V13.2535H17.1584C16.9118 14.6196 16.1196 15.8282 14.9596 16.5961V19.3446H18.5043C20.5859 17.4287 21.7823 14.5994 21.7823 11.2527Z" fill="white"/>
<path id="Vector_2" d="M11.2176 22.0001C14.1843 22.0001 16.6862 21.026 18.5091 19.3445L14.9644 16.5961C13.9782 17.267 12.705 17.647 11.2216 17.647C8.35187 17.647 5.91865 15.7109 5.0456 13.1079H1.3877V15.9413C3.25505 19.6558 7.05847 22.0001 11.2176 22.0001Z" fill="white"/>
<path id="Vector_3" d="M5.04128 13.1082C4.5805 11.7421 4.5805 10.2628 5.04128 8.8966V6.06323H1.38741C-0.172757 9.17144 -0.172757 12.8334 1.38741 15.9416L5.04128 13.1082Z" fill="white"/>
<path id="Vector_4" d="M11.2176 4.35361C12.7858 4.32936 14.3015 4.91948 15.4373 6.0027L18.5778 2.86215C16.5892 0.994802 13.9499 -0.031838 11.2176 0.000497137C7.05847 0.000497137 3.25505 2.34479 1.3877 6.06333L5.04156 8.89669C5.91057 6.28968 8.34783 4.35361 11.2176 4.35361Z" fill="white"/>
</g>
</g>
<defs>
<clipPath id="clip0_376_46012">
<rect width="22" height="22" fill="white"/>
</clipPath>
</defs>
</svg>
