<svg width="132" height="50" viewBox="0 0 132 50" fill="none" xmlns="http://www.w3.org/2000/svg">
<g filter="url(#filter0_d_291_53679)">
<rect x="2" y="1" width="128" height="46" rx="6" fill="#437EF7"/>
<path d="M42.576 29V18.0909H46.7521C47.5405 18.0909 48.1957 18.2152 48.7177 18.4638C49.2433 18.7088 49.6357 19.0444 49.8949 19.4705C50.1577 19.8967 50.2891 20.3796 50.2891 20.9194C50.2891 21.3633 50.2038 21.7433 50.0334 22.0593C49.8629 22.3718 49.6339 22.6257 49.3462 22.821C49.0586 23.0163 48.7372 23.1566 48.3821 23.2418V23.3484C48.7692 23.3697 49.1403 23.4886 49.4954 23.7053C49.854 23.9183 50.147 24.2202 50.3743 24.6108C50.6016 25.0014 50.7152 25.4737 50.7152 26.0277C50.7152 26.5923 50.5785 27.1001 50.305 27.5511C50.0316 27.9986 49.6197 28.3519 49.0692 28.6112C48.5188 28.8704 47.8263 29 46.9918 29H42.576ZM44.5522 27.3487H46.6776C47.3949 27.3487 47.9116 27.212 48.2276 26.9386C48.5472 26.6616 48.707 26.3065 48.707 25.8732C48.707 25.5501 48.6271 25.2589 48.4673 24.9996C48.3075 24.7369 48.0803 24.5309 47.7855 24.3817C47.4908 24.229 47.1392 24.1527 46.7308 24.1527H44.5522V27.3487ZM44.5522 22.7305H46.5071C46.848 22.7305 47.1552 22.6683 47.4286 22.544C47.7021 22.4162 47.9169 22.2369 48.0732 22.006C48.233 21.7717 48.3129 21.4947 48.3129 21.1751C48.3129 20.7525 48.1637 20.4045 47.8654 20.131C47.5707 19.8576 47.1321 19.7209 46.5497 19.7209H44.5522V22.7305ZM57.564 25.5589V20.8182H59.4923V29H57.6226V27.5458H57.5374C57.3527 28.0039 57.0491 28.3786 56.6265 28.6697C56.2075 28.9609 55.6908 29.1065 55.0764 29.1065C54.5402 29.1065 54.0661 28.9876 53.6542 28.7496C53.2458 28.5082 52.9262 28.1584 52.6954 27.7003C52.4646 27.2386 52.3492 26.6811 52.3492 26.0277V20.8182H54.2774V25.7294C54.2774 26.2479 54.4195 26.6598 54.7036 26.9652C54.9877 27.2706 55.3605 27.4233 55.8222 27.4233C56.1063 27.4233 56.3815 27.354 56.6478 27.2156C56.9142 27.0771 57.1325 26.8711 57.303 26.5977C57.477 26.3207 57.564 25.9744 57.564 25.5589ZM65.5607 20.8182V22.3097H60.8572V20.8182H65.5607ZM62.0185 18.858H63.9467V26.5391C63.9467 26.7983 63.9858 26.9972 64.0639 27.1357C64.1456 27.2706 64.2521 27.3629 64.3835 27.4126C64.5149 27.4624 64.6605 27.4872 64.8203 27.4872C64.9411 27.4872 65.0511 27.4783 65.1506 27.4606C65.2536 27.4428 65.3317 27.4268 65.3849 27.4126L65.7099 28.9201C65.6069 28.9556 65.4595 28.9947 65.2678 29.0373C65.0795 29.0799 64.8487 29.1048 64.5753 29.1119C64.0923 29.1261 63.6573 29.0533 63.2702 28.8935C62.8832 28.7301 62.576 28.478 62.3487 28.1371C62.125 27.7962 62.0149 27.37 62.0185 26.8587V18.858ZM71.259 20.8182V22.3097H66.5555V20.8182H71.259ZM67.7167 18.858H69.645V26.5391C69.645 26.7983 69.684 26.9972 69.7622 27.1357C69.8438 27.2706 69.9504 27.3629 70.0818 27.4126C70.2132 27.4624 70.3588 27.4872 70.5186 27.4872C70.6393 27.4872 70.7494 27.4783 70.8488 27.4606C70.9518 27.4428 71.0299 27.4268 71.0832 27.4126L71.4081 28.9201C71.3051 28.9556 71.1578 28.9947 70.966 29.0373C70.7778 29.0799 70.547 29.1048 70.2735 29.1119C69.7906 29.1261 69.3556 29.0533 68.9685 28.8935C68.5814 28.7301 68.2742 28.478 68.047 28.1371C67.8232 27.7962 67.7132 27.37 67.7167 26.8587V18.858ZM76.3526 29.1598C75.5536 29.1598 74.8612 28.984 74.2752 28.6325C73.6893 28.2809 73.2347 27.7891 72.9116 27.157C72.592 26.5249 72.4322 25.7862 72.4322 24.9411C72.4322 24.0959 72.592 23.3555 72.9116 22.7198C73.2347 22.0842 73.6893 21.5906 74.2752 21.239C74.8612 20.8874 75.5536 20.7116 76.3526 20.7116C77.1516 20.7116 77.8441 20.8874 78.43 21.239C79.016 21.5906 79.4688 22.0842 79.7884 22.7198C80.1115 23.3555 80.2731 24.0959 80.2731 24.9411C80.2731 25.7862 80.1115 26.5249 79.7884 27.157C79.4688 27.7891 79.016 28.2809 78.43 28.6325C77.8441 28.984 77.1516 29.1598 76.3526 29.1598ZM76.3633 27.6151C76.7965 27.6151 77.1587 27.4961 77.4499 27.2582C77.7411 27.0167 77.9577 26.6935 78.0998 26.2887C78.2454 25.8839 78.3182 25.4329 78.3182 24.9357C78.3182 24.435 78.2454 23.9822 78.0998 23.5774C77.9577 23.169 77.7411 22.8441 77.4499 22.6026C77.1587 22.3612 76.7965 22.2404 76.3633 22.2404C75.9194 22.2404 75.5501 22.3612 75.2553 22.6026C74.9641 22.8441 74.7457 23.169 74.6001 23.5774C74.4581 23.9822 74.3871 24.435 74.3871 24.9357C74.3871 25.4329 74.4581 25.8839 74.6001 26.2887C74.7457 26.6935 74.9641 27.0167 75.2553 27.2582C75.5501 27.4961 75.9194 27.6151 76.3633 27.6151ZM83.838 24.206V29H81.9097V20.8182H83.7528V22.2085H83.8486C84.0368 21.7504 84.3369 21.3864 84.7488 21.1165C85.1643 20.8466 85.6775 20.7116 86.2883 20.7116C86.8529 20.7116 87.3447 20.8324 87.7638 21.0739C88.1863 21.3153 88.5131 21.6651 88.7439 22.1232C88.9782 22.5813 89.0937 23.1371 89.0901 23.7905V29H87.1618V24.0888C87.1618 23.5419 87.0198 23.114 86.7357 22.805C86.4552 22.4961 86.0663 22.3416 85.5692 22.3416C85.2318 22.3416 84.9317 22.4162 84.6689 22.5653C84.4097 22.7109 84.2055 22.9222 84.0564 23.1992C83.9108 23.4762 83.838 23.8118 83.838 24.206Z" fill="white"/>
</g>
<defs>
<filter id="filter0_d_291_53679" x="0" y="0" width="132" height="50" filterUnits="userSpaceOnUse" color-interpolation-filters="sRGB">
<feFlood flood-opacity="0" result="BackgroundImageFix"/>
<feColorMatrix in="SourceAlpha" type="matrix" values="0 0 0 0 0 0 0 0 0 0 0 0 0 0 0 0 0 0 127 0" result="hardAlpha"/>
<feOffset dy="1"/>
<feGaussianBlur stdDeviation="1"/>
<feComposite in2="hardAlpha" operator="out"/>
<feColorMatrix type="matrix" values="0 0 0 0 0.0627451 0 0 0 0 0.0941176 0 0 0 0 0.156863 0 0 0 0.04 0"/>
<feBlend mode="normal" in2="BackgroundImageFix" result="effect1_dropShadow_291_53679"/>
<feBlend mode="normal" in="SourceGraphic" in2="effect1_dropShadow_291_53679" result="shape"/>
</filter>
</defs>
</svg>
