<svg width="92" height="46" viewBox="0 0 92 46" fill="none" xmlns="http://www.w3.org/2000/svg">
<rect x="0.5" width="91" height="46" rx="6" fill="white"/>
<path d="M25.8098 20.0898C25.7601 19.6246 25.5506 19.2624 25.1812 19.0032C24.8155 18.744 24.3396 18.6143 23.7537 18.6143C23.3418 18.6143 22.9884 18.6765 22.6937 18.8008C22.3989 18.9251 22.1734 19.0937 22.0172 19.3068C21.8609 19.5199 21.781 19.7631 21.7775 20.0366C21.7775 20.2638 21.829 20.4609 21.932 20.6278C22.0385 20.7947 22.1823 20.9368 22.3634 21.054C22.5445 21.1676 22.7452 21.2635 22.9653 21.3416C23.1855 21.4197 23.4074 21.4854 23.6312 21.5387L24.6539 21.7944C25.0658 21.8903 25.4618 22.0199 25.8418 22.1832C26.2253 22.3466 26.568 22.5526 26.8698 22.8011C27.1752 23.0497 27.4167 23.3498 27.5942 23.7013C27.7718 24.0529 27.8606 24.4648 27.8606 24.9371C27.8606 25.5763 27.6972 26.1392 27.3705 26.6257C27.0438 27.1087 26.5715 27.4869 25.9536 27.7603C25.3393 28.0302 24.5953 28.1651 23.7217 28.1651C22.873 28.1651 22.1361 28.0337 21.5111 27.771C20.8897 27.5082 20.4032 27.1246 20.0516 26.6204C19.7036 26.1161 19.5154 25.5018 19.487 24.7773H21.4312C21.4597 25.1573 21.5768 25.4734 21.7828 25.7255C21.9888 25.9776 22.2569 26.1658 22.5871 26.2901C22.9209 26.4144 23.2938 26.4766 23.7057 26.4766C24.1354 26.4766 24.5119 26.4126 24.835 26.2848C25.1617 26.1534 25.4174 25.9723 25.6021 25.7415C25.7867 25.5071 25.8808 25.2337 25.8844 24.9212C25.8808 24.6371 25.7974 24.4027 25.634 24.218C25.4707 24.0298 25.2416 23.8736 24.9469 23.7493C24.6557 23.6214 24.3148 23.5078 23.9241 23.4084L22.683 23.0888C21.7846 22.858 21.0744 22.5082 20.5523 22.0394C20.0339 21.5671 19.7746 20.9403 19.7746 20.1591C19.7746 19.5163 19.9486 18.9535 20.2967 18.4705C20.6482 17.9876 21.1258 17.6129 21.7295 17.3466C22.3332 17.0767 23.0168 16.9418 23.7803 16.9418C24.5545 16.9418 25.2327 17.0767 25.8151 17.3466C26.4011 17.6129 26.8609 17.984 27.1947 18.4599C27.5285 18.9322 27.7008 19.4755 27.7114 20.0898H25.8098ZM29.5372 28V19.8182H31.4654V28H29.5372ZM30.5066 18.657C30.2012 18.657 29.9384 18.5558 29.7183 18.3533C29.4981 18.1474 29.388 17.9006 29.388 17.6129C29.388 17.3217 29.4981 17.0749 29.7183 16.8725C29.9384 16.6665 30.2012 16.5636 30.5066 16.5636C30.8156 16.5636 31.0783 16.6665 31.295 16.8725C31.5151 17.0749 31.6252 17.3217 31.6252 17.6129C31.6252 17.9006 31.5151 18.1474 31.295 18.3533C31.0783 18.5558 30.8156 18.657 30.5066 18.657ZM37.0065 31.2386C36.3141 31.2386 35.7192 31.1445 35.2221 30.9563C34.7249 30.7717 34.3254 30.5231 34.0236 30.2106C33.7217 29.8981 33.5122 29.5518 33.395 29.1719L35.1315 28.7511C35.2097 28.9109 35.3233 29.0689 35.4724 29.2251C35.6216 29.3849 35.8222 29.5163 36.0744 29.6193C36.33 29.7259 36.6514 29.7791 37.0385 29.7791C37.5854 29.7791 38.0381 29.646 38.3968 29.3796C38.7555 29.1168 38.9348 28.6836 38.9348 28.0799V26.5298H38.8389C38.7395 26.7287 38.5939 26.9329 38.4021 27.1424C38.2139 27.3519 37.9636 27.5277 37.6511 27.6697C37.3421 27.8118 36.9533 27.8828 36.4845 27.8828C35.856 27.8828 35.286 27.7354 34.7746 27.4407C34.2668 27.1424 33.862 26.6985 33.5601 26.109C33.2619 25.516 33.1127 24.7738 33.1127 23.8825C33.1127 22.984 33.2619 22.2259 33.5601 21.608C33.862 20.9865 34.2686 20.516 34.78 20.1964C35.2913 19.8732 35.8613 19.7116 36.4898 19.7116C36.9692 19.7116 37.3634 19.7933 37.6724 19.9567C37.9849 20.1165 38.2334 20.31 38.4181 20.5373C38.6028 20.761 38.743 20.9723 38.8389 21.1712H38.9454V19.8182H40.8471V28.1332C40.8471 28.8327 40.6802 29.4116 40.3464 29.8697C40.0126 30.3278 39.5562 30.6705 38.9774 30.8977C38.3986 31.125 37.7416 31.2386 37.0065 31.2386ZM37.0225 26.37C37.4309 26.37 37.7789 26.2706 38.0665 26.0717C38.3542 25.8729 38.5726 25.587 38.7217 25.2141C38.8709 24.8413 38.9454 24.3938 38.9454 23.8718C38.9454 23.3569 38.8709 22.9059 38.7217 22.5188C38.5761 22.1317 38.3595 21.8317 38.0719 21.6186C37.7878 21.402 37.438 21.2937 37.0225 21.2937C36.5928 21.2937 36.2342 21.4055 35.9465 21.6293C35.6589 21.853 35.4422 22.1602 35.2967 22.5508C35.1511 22.9379 35.0783 23.3782 35.0783 23.8718C35.0783 24.3725 35.1511 24.8111 35.2967 25.1875C35.4458 25.5604 35.6642 25.8516 35.9518 26.0611C36.243 26.267 36.5999 26.37 37.0225 26.37ZM44.7516 23.206V28H42.8233V19.8182H44.6663V21.2085H44.7622C44.9504 20.7504 45.2505 20.3864 45.6624 20.1165C46.0779 19.8466 46.591 19.7116 47.2018 19.7116C47.7665 19.7116 48.2583 19.8324 48.6773 20.0739C49.0999 20.3153 49.4266 20.6651 49.6574 21.1232C49.8918 21.5813 50.0072 22.1371 50.0037 22.7905V28H48.0754V23.0888C48.0754 22.5419 47.9334 22.114 47.6493 21.805C47.3687 21.4961 46.9799 21.3416 46.4827 21.3416C46.1454 21.3416 45.8453 21.4162 45.5825 21.5653C45.3233 21.7109 45.1191 21.9222 44.9699 22.1992C44.8244 22.4762 44.7516 22.8118 44.7516 23.206ZM60.8995 24.5589V19.8182H62.8277V28H60.9581V26.5458H60.8728C60.6882 27.0039 60.3845 27.3786 59.962 27.6697C59.5429 27.9609 59.0262 28.1065 58.4119 28.1065C57.8757 28.1065 57.4016 27.9876 56.9897 27.7496C56.5813 27.5082 56.2617 27.1584 56.0309 26.7003C55.8 26.2386 55.6846 25.6811 55.6846 25.0277V19.8182H57.6129V24.7294C57.6129 25.2479 57.7549 25.6598 58.039 25.9652C58.3231 26.2706 58.696 26.4233 59.1576 26.4233C59.4417 26.4233 59.7169 26.354 59.9833 26.2156C60.2496 26.0771 60.468 25.8711 60.6385 25.5977C60.8125 25.3207 60.8995 24.9744 60.8995 24.5589ZM64.8106 31.0682V19.8182H66.7069V21.1712H66.8188C66.9182 20.9723 67.0585 20.761 67.2396 20.5373C67.4207 20.31 67.6657 20.1165 67.9747 19.9567C68.2836 19.7933 68.6778 19.7116 69.1572 19.7116C69.7893 19.7116 70.3592 19.8732 70.8671 20.1964C71.3784 20.516 71.7832 20.9901 72.0815 21.6186C72.3834 22.2436 72.5343 23.0107 72.5343 23.9197C72.5343 24.8182 72.3869 25.5817 72.0922 26.2102C71.7975 26.8388 71.3962 27.3182 70.8884 27.6484C70.3805 27.9787 69.8053 28.1438 69.1625 28.1438C68.6938 28.1438 68.3049 28.0657 67.996 27.9094C67.687 27.7532 67.4384 27.565 67.2502 27.3448C67.0656 27.1211 66.9217 26.9098 66.8188 26.7109H66.7389V31.0682H64.8106ZM66.7016 23.9091C66.7016 24.4382 66.7761 24.9016 66.9253 25.2994C67.078 25.6971 67.2964 26.0078 67.5805 26.2315C67.8681 26.4517 68.2161 26.5618 68.6245 26.5618C69.0506 26.5618 69.4075 26.4482 69.6952 26.2209C69.9828 25.9901 70.1994 25.6758 70.345 25.2781C70.4942 24.8768 70.5688 24.4205 70.5688 23.9091C70.5688 23.4013 70.496 22.9503 70.3504 22.5561C70.2048 22.1619 69.9881 21.853 69.7005 21.6293C69.4129 21.4055 69.0542 21.2937 68.6245 21.2937C68.2126 21.2937 67.8628 21.402 67.5752 21.6186C67.2875 21.8352 67.0691 22.1388 66.92 22.5295C66.7744 22.9201 66.7016 23.38 66.7016 23.9091Z" fill="#437EF7"/>
</svg>
