<svg width="24" height="24" viewBox="0 0 24 24" fill="none" xmlns="http://www.w3.org/2000/svg">
<g id="Social platforms logo" clip-path="url(#clip0_39_56782)">
<g id="Logo">
<path id="Vector" d="M23.7628 12.2759C23.7628 11.4602 23.6967 10.64 23.5556 9.83752H12.2368V14.4585H18.7185C18.4496 15.9489 17.5853 17.2673 16.3199 18.105V21.1034H20.1869C22.4577 19.0133 23.7628 15.9268 23.7628 12.2759Z" fill="white"/>
<path id="Vector_2" d="M12.2372 24.0002C15.4736 24.0002 18.203 22.9375 20.1916 21.1032L16.3246 18.1049C15.2487 18.8368 13.8598 19.2513 12.2416 19.2513C9.11096 19.2513 6.45653 17.1392 5.50412 14.2996H1.51367V17.3906C3.55078 21.4427 7.69997 24.0002 12.2372 24.0002Z" fill="white"/>
<path id="Vector_3" d="M5.49984 14.3001C4.99718 12.8097 4.99718 11.1959 5.49984 9.70557V6.61462H1.51381C-0.188196 10.0054 -0.188196 14.0003 1.51381 17.391L5.49984 14.3001Z" fill="white"/>
<path id="Vector_4" d="M12.2372 4.74948C13.948 4.72302 15.6015 5.36678 16.8405 6.54848L20.2666 3.12243C18.0972 1.08532 15.2179 -0.0346491 12.2372 0.000625561C7.69997 0.000625561 3.55078 2.55804 1.51367 6.61462L5.49971 9.70557C6.44772 6.86155 9.10654 4.74948 12.2372 4.74948Z" fill="white"/>
</g>
</g>
<defs>
<clipPath id="clip0_39_56782">
<rect width="24" height="24" fill="white"/>
</clipPath>
</defs>
</svg>
